<svg width="150" height="150" viewBox="0 0 150 150" xmlns="http://www.w3.org/2000/svg"
    xmlns:xlink="http://www.w3.org/1999/xlink">
    <style>
        * {
            font-family: sans-serif;
        }

        .axis-label {
            font-size: 14px;
        }

        .mazelines {
            fill: transparent;
        }

        .GlowySquare {
            fill: #0e85c9;
            box-shadow: 0 0 5px #0e85c9;
        }
    </style>
    <text x="37.5" y="15" class="axis-label" text-anchor="middle">0</text>
    <text x="62.5" y="15" class="axis-label" text-anchor="middle">1</text>
    <text x="87.5" y="15" class="axis-label" text-anchor="middle">2</text>
    <text x="112.5" y="15" class="axis-label" text-anchor="middle">3</text>
    <text x="15" y="45" class="axis-label" text-anchor="end">0</text>
    <text x="15" y="70" class="axis-label" text-anchor="end">1</text>
    <text x="15" y="95" class="axis-label" text-anchor="end">2</text>
    <text x="15" y="120" class="axis-label" text-anchor="end">3</text>
    <g class="mazelines">
        <path d="M 25 50 L 25 75" stroke="currentColor" stroke-width="1" />
        <path d="M 75 125 L 100 125" stroke="currentColor" stroke-width="1" />
        <path d="M 75 25 L 100 25" stroke="currentColor" stroke-width="1" />
        <path d="M 75 75 L 100 75" stroke="currentColor" stroke-width="1" />
        <path d="M 100 125 L 125 125" stroke="currentColor" stroke-width="1" />
        <path d="M 125 100 L 125 125" stroke="currentColor" stroke-width="1" />
        <path d="M 50 25 L 75 25" stroke="currentColor" stroke-width="1" />
        <path d="M 50 75 L 50 100" stroke="currentColor" stroke-width="1" />
        <path d="M 50 100 L 75 100" stroke="currentColor" stroke-width="1" />
        <path d="M 125 50 L 125 75" stroke="currentColor" stroke-width="1" />
        <path d="M 50 125 L 75 125" stroke="currentColor" stroke-width="1" />
        <path d="M 100 50 L 100 75" stroke="currentColor" stroke-width="1" />
        <path d="M 25 100 L 25 125" stroke="currentColor" stroke-width="1" />
        <path d="M 125 75 L 125 100" stroke="currentColor" stroke-width="1" />
        <path d="M 25 25 L 50 25" stroke="currentColor" stroke-width="1" />
        <path d="M 100 100 L 100 125" stroke="currentColor" stroke-width="1" />
        <path d="M 100 25 L 125 25" stroke="currentColor" stroke-width="1" />
        <path d="M 50 50 L 50 75" stroke="currentColor" stroke-width="1" />
        <path d="M 50 75 L 75 75" stroke="currentColor" stroke-width="1" />
        <path d="M 75 25 L 75 50" stroke="currentColor" stroke-width="1" />
        <path d="M 25 125 L 50 125" stroke="currentColor" stroke-width="1" />
        <path d="M 125 25 L 125 50" stroke="currentColor" stroke-width="1" />
        <path d="M 75 50 L 75 75" stroke="currentColor" stroke-width="1" />
        <path d="M 25 75 L 25 100" stroke="currentColor" stroke-width="1" />
        <path d="M 25 25 L 25 50" stroke="currentColor" stroke-width="1" />
        <path d="M 100 75 L 100 100" stroke="currentColor" stroke-width="1" />
        <path d="M 100 25 L 100 50" stroke="currentColor" stroke-width="1" />
        <path d="M 75 50 L 100 50" stroke="currentColor" stroke-width="1" />
        <path d="M 100 50 L 125 50" stroke="currentColor" stroke-width="1" />
        <path d="M 100 75 L 125 75" stroke="currentColor" stroke-width="1" />
        <path d="M 100 100 L 125 100" stroke="currentColor" stroke-width="1" />
    </g>
    <rect class="GlowySquare" x="80" y="80" height="15" width="15" />
</svg>