<svg width="450" height="450" viewBox="0 0 450 450" xmlns="http://www.w3.org/2000/svg"
    xmlns:xlink="http://www.w3.org/1999/xlink">
    <g class="mazebg">
        <path d="M 25 25 L 425 25" stroke="currentColor" stroke-width="1"></path>
        <path d="M 25 25 L 25 425" stroke="currentColor" stroke-width="1"></path>
        <path d="M 400 75 L 425 75" stroke="currentColor" stroke-width="1"></path>
        <path d="M 425 50 L 425 75" stroke="currentColor" stroke-width="1"></path>
        <path d="M 425 100 L 425 125" stroke="currentColor" stroke-width="1"></path>
        <path d="M 425 150 L 425 175" stroke="currentColor" stroke-width="1"></path>
        <path d="M 425 200 L 425 225" stroke="currentColor" stroke-width="1"></path>
        <path d="M 400 275 L 425 275" stroke="currentColor" stroke-width="1"></path>
        <path d="M 425 250 L 425 275" stroke="currentColor" stroke-width="1"></path>
        <path d="M 400 325 L 425 325" stroke="currentColor" stroke-width="1"></path>
        <path d="M 425 300 L 425 325" stroke="currentColor" stroke-width="1"></path>
        <path d="M 400 375 L 425 375" stroke="currentColor" stroke-width="1"></path>
        <path d="M 425 350 L 425 375" stroke="currentColor" stroke-width="1"></path>
        <path d="M 400 425 L 425 425" stroke="currentColor" stroke-width="1"></path>
        <path d="M 425 400 L 425 425" stroke="currentColor" stroke-width="1"></path>
        <path d="M 225 50 L 250 50" stroke="currentColor" stroke-width="1"></path>
        <path d="M 50 75 L 50 100" stroke="currentColor" stroke-width="1"></path>
        <path d="M 25 150 L 50 150" stroke="currentColor" stroke-width="1"></path>
        <path d="M 50 175 L 50 200" stroke="currentColor" stroke-width="1"></path>
        <path d="M 50 275 L 50 300" stroke="currentColor" stroke-width="1"></path>
        <path d="M 25 350 L 50 350" stroke="currentColor" stroke-width="1"></path>
        <path d="M 50 375 L 50 400" stroke="currentColor" stroke-width="1"></path>
        <path d="M 75 75 L 75 100" stroke="currentColor" stroke-width="1"></path>
        <path d="M 75 125 L 75 150" stroke="currentColor" stroke-width="1"></path>
        <path d="M 50 200 L 75 200" stroke="currentColor" stroke-width="1"></path>
        <path d="M 75 225 L 75 250" stroke="currentColor" stroke-width="1"></path>
        <path d="M 75 275 L 75 300" stroke="currentColor" stroke-width="1"></path>
        <path d="M 75 325 L 75 350" stroke="currentColor" stroke-width="1"></path>
        <path d="M 50 400 L 75 400" stroke="currentColor" stroke-width="1"></path>
        <path d="M 50 50 L 75 50" stroke="currentColor" stroke-width="1"></path>
        <path d="M 75 100 L 100 100" stroke="currentColor" stroke-width="1"></path>
        <path d="M 100 125 L 100 150" stroke="currentColor" stroke-width="1"></path>
        <path d="M 75 200 L 100 200" stroke="currentColor" stroke-width="1"></path>
        <path d="M 75 250 L 100 250" stroke="currentColor" stroke-width="1"></path>
        <path d="M 75 400 L 100 400" stroke="currentColor" stroke-width="1"></path>
        <path d="M 100 25 L 100 50" stroke="currentColor" stroke-width="1"></path>
        <path d="M 100 100 L 125 100" stroke="currentColor" stroke-width="1"></path>
        <path d="M 125 75 L 125 100" stroke="currentColor" stroke-width="1"></path>
        <path d="M 100 150 L 125 150" stroke="currentColor" stroke-width="1"></path>
        <path d="M 125 175 L 125 200" stroke="currentColor" stroke-width="1"></path>
        <path d="M 100 250 L 125 250" stroke="currentColor" stroke-width="1"></path>
        <path d="M 100 300 L 125 300" stroke="currentColor" stroke-width="1"></path>
        <path d="M 100 350 L 125 350" stroke="currentColor" stroke-width="1"></path>
        <path d="M 100 400 L 125 400" stroke="currentColor" stroke-width="1"></path>
        <path d="M 125 375 L 125 400" stroke="currentColor" stroke-width="1"></path>
        <path d="M 125 25 L 125 50" stroke="currentColor" stroke-width="1"></path>
        <path d="M 125 150 L 150 150" stroke="currentColor" stroke-width="1"></path>
        <path d="M 150 125 L 150 150" stroke="currentColor" stroke-width="1"></path>
        <path d="M 125 250 L 150 250" stroke="currentColor" stroke-width="1"></path>
        <path d="M 150 225 L 150 250" stroke="currentColor" stroke-width="1"></path>
        <path d="M 125 300 L 150 300" stroke="currentColor" stroke-width="1"></path>
        <path d="M 125 350 L 150 350" stroke="currentColor" stroke-width="1"></path>
        <path d="M 150 325 L 150 350" stroke="currentColor" stroke-width="1"></path>
        <path d="M 125 400 L 150 400" stroke="currentColor" stroke-width="1"></path>
        <path d="M 150 100 L 175 100" stroke="currentColor" stroke-width="1"></path>
        <path d="M 175 75 L 175 100" stroke="currentColor" stroke-width="1"></path>
        <path d="M 175 175 L 175 200" stroke="currentColor" stroke-width="1"></path>
        <path d="M 175 275 L 175 300" stroke="currentColor" stroke-width="1"></path>
        <path d="M 150 400 L 175 400" stroke="currentColor" stroke-width="1"></path>
        <path d="M 150 50 L 175 50" stroke="currentColor" stroke-width="1"></path>
        <path d="M 200 75 L 200 100" stroke="currentColor" stroke-width="1"></path>
        <path d="M 175 150 L 200 150" stroke="currentColor" stroke-width="1"></path>
        <path d="M 200 125 L 200 150" stroke="currentColor" stroke-width="1"></path>
        <path d="M 175 200 L 200 200" stroke="currentColor" stroke-width="1"></path>
        <path d="M 200 225 L 200 250" stroke="currentColor" stroke-width="1"></path>
        <path d="M 175 300 L 200 300" stroke="currentColor" stroke-width="1"></path>
        <path d="M 175 350 L 200 350" stroke="currentColor" stroke-width="1"></path>
        <path d="M 200 375 L 200 400" stroke="currentColor" stroke-width="1"></path>
        <path d="M 175 50 L 200 50" stroke="currentColor" stroke-width="1"></path>
        <path d="M 225 75 L 225 100" stroke="currentColor" stroke-width="1"></path>
        <path d="M 200 150 L 225 150" stroke="currentColor" stroke-width="1"></path>
        <path d="M 225 125 L 225 150" stroke="currentColor" stroke-width="1"></path>
        <path d="M 200 200 L 225 200" stroke="currentColor" stroke-width="1"></path>
        <path d="M 225 175 L 225 200" stroke="currentColor" stroke-width="1"></path>
        <path d="M 225 225 L 225 250" stroke="currentColor" stroke-width="1"></path>
        <path d="M 200 300 L 225 300" stroke="currentColor" stroke-width="1"></path>
        <path d="M 225 275 L 225 300" stroke="currentColor" stroke-width="1"></path>
        <path d="M 200 350 L 225 350" stroke="currentColor" stroke-width="1"></path>
        <path d="M 225 325 L 225 350" stroke="currentColor" stroke-width="1"></path>
        <path d="M 200 400 L 225 400" stroke="currentColor" stroke-width="1"></path>
        <path d="M 200 50 L 225 50" stroke="currentColor" stroke-width="1"></path>
        <path d="M 250 75 L 250 100" stroke="currentColor" stroke-width="1"></path>
        <path d="M 225 150 L 250 150" stroke="currentColor" stroke-width="1"></path>
        <path d="M 250 225 L 250 250" stroke="currentColor" stroke-width="1"></path>
        <path d="M 225 300 L 250 300" stroke="currentColor" stroke-width="1"></path>
        <path d="M 250 375 L 250 400" stroke="currentColor" stroke-width="1"></path>
        <path d="M 250 50 L 275 50" stroke="currentColor" stroke-width="1"></path>
        <path d="M 250 150 L 275 150" stroke="currentColor" stroke-width="1"></path>
        <path d="M 250 200 L 275 200" stroke="currentColor" stroke-width="1"></path>
        <path d="M 275 175 L 275 200" stroke="currentColor" stroke-width="1"></path>
        <path d="M 275 225 L 275 250" stroke="currentColor" stroke-width="1"></path>
        <path d="M 250 300 L 275 300" stroke="currentColor" stroke-width="1"></path>
        <path d="M 275 275 L 275 300" stroke="currentColor" stroke-width="1"></path>
        <path d="M 250 350 L 275 350" stroke="currentColor" stroke-width="1"></path>
        <path d="M 275 325 L 275 350" stroke="currentColor" stroke-width="1"></path>
        <path d="M 275 50 L 300 50" stroke="currentColor" stroke-width="1"></path>
        <path d="M 275 100 L 300 100" stroke="currentColor" stroke-width="1"></path>
        <path d="M 300 75 L 300 100" stroke="currentColor" stroke-width="1"></path>
        <path d="M 275 150 L 300 150" stroke="currentColor" stroke-width="1"></path>
        <path d="M 300 125 L 300 150" stroke="currentColor" stroke-width="1"></path>
        <path d="M 275 200 L 300 200" stroke="currentColor" stroke-width="1"></path>
        <path d="M 300 175 L 300 200" stroke="currentColor" stroke-width="1"></path>
        <path d="M 275 250 L 300 250" stroke="currentColor" stroke-width="1"></path>
        <path d="M 275 300 L 300 300" stroke="currentColor" stroke-width="1"></path>
        <path d="M 300 275 L 300 300" stroke="currentColor" stroke-width="1"></path>
        <path d="M 275 350 L 300 350" stroke="currentColor" stroke-width="1"></path>
        <path d="M 275 400 L 300 400" stroke="currentColor" stroke-width="1"></path>
        <path d="M 300 375 L 300 400" stroke="currentColor" stroke-width="1"></path>
        <path d="M 300 50 L 325 50" stroke="currentColor" stroke-width="1"></path>
        <path d="M 300 100 L 325 100" stroke="currentColor" stroke-width="1"></path>
        <path d="M 325 225 L 325 250" stroke="currentColor" stroke-width="1"></path>
        <path d="M 300 300 L 325 300" stroke="currentColor" stroke-width="1"></path>
        <path d="M 300 350 L 325 350" stroke="currentColor" stroke-width="1"></path>
        <path d="M 325 375 L 325 400" stroke="currentColor" stroke-width="1"></path>
        <path d="M 325 100 L 350 100" stroke="currentColor" stroke-width="1"></path>
        <path d="M 325 150 L 350 150" stroke="currentColor" stroke-width="1"></path>
        <path d="M 350 125 L 350 150" stroke="currentColor" stroke-width="1"></path>
        <path d="M 325 200 L 350 200" stroke="currentColor" stroke-width="1"></path>
        <path d="M 350 175 L 350 200" stroke="currentColor" stroke-width="1"></path>
        <path d="M 350 225 L 350 250" stroke="currentColor" stroke-width="1"></path>
        <path d="M 350 275 L 350 300" stroke="currentColor" stroke-width="1"></path>
        <path d="M 325 350 L 350 350" stroke="currentColor" stroke-width="1"></path>
        <path d="M 350 50 L 375 50" stroke="currentColor" stroke-width="1"></path>
        <path d="M 375 75 L 375 100" stroke="currentColor" stroke-width="1"></path>
        <path d="M 350 200 L 375 200" stroke="currentColor" stroke-width="1"></path>
        <path d="M 350 350 L 375 350" stroke="currentColor" stroke-width="1"></path>
        <path d="M 350 400 L 375 400" stroke="currentColor" stroke-width="1"></path>
        <path d="M 375 375 L 375 400" stroke="currentColor" stroke-width="1"></path>
        <path d="M 375 50 L 400 50" stroke="currentColor" stroke-width="1"></path>
        <path d="M 375 100 L 400 100" stroke="currentColor" stroke-width="1"></path>
        <path d="M 375 150 L 400 150" stroke="currentColor" stroke-width="1"></path>
        <path d="M 400 125 L 400 150" stroke="currentColor" stroke-width="1"></path>
        <path d="M 375 200 L 400 200" stroke="currentColor" stroke-width="1"></path>
        <path d="M 400 225 L 400 250" stroke="currentColor" stroke-width="1"></path>
        <path d="M 375 300 L 400 300" stroke="currentColor" stroke-width="1"></path>
        <path d="M 400 275 L 400 300" stroke="currentColor" stroke-width="1"></path>
        <path d="M 375 400 L 400 400" stroke="currentColor" stroke-width="1"></path>
        <path d="M 425 25 L 425 50" stroke="currentColor" stroke-width="1"></path>
        <path d="M 425 75 L 425 100" stroke="currentColor" stroke-width="1"></path>
        <path d="M 425 125 L 425 150" stroke="currentColor" stroke-width="1"></path>
        <path d="M 425 175 L 425 200" stroke="currentColor" stroke-width="1"></path>
        <path d="M 425 225 L 425 250" stroke="currentColor" stroke-width="1"></path>
        <path d="M 425 275 L 425 300" stroke="currentColor" stroke-width="1"></path>
        <path d="M 425 325 L 425 350" stroke="currentColor" stroke-width="1"></path>
        <path d="M 425 375 L 425 400" stroke="currentColor" stroke-width="1"></path>
        <path d="M 50 100 L 50 125" stroke="currentColor" stroke-width="1"></path>
        <path d="M 50 150 L 50 175" stroke="currentColor" stroke-width="1"></path>
        <path d="M 50 250 L 50 275" stroke="currentColor" stroke-width="1"></path>
        <path d="M 50 300 L 50 325" stroke="currentColor" stroke-width="1"></path>
        <path d="M 50 350 L 50 375" stroke="currentColor" stroke-width="1"></path>
        <path d="M 25 425 L 50 425" stroke="currentColor" stroke-width="1"></path>
        <path d="M 75 50 L 75 75" stroke="currentColor" stroke-width="1"></path>
        <path d="M 50 125 L 75 125" stroke="currentColor" stroke-width="1"></path>
        <path d="M 75 150 L 75 175" stroke="currentColor" stroke-width="1"></path>
        <path d="M 50 225 L 75 225" stroke="currentColor" stroke-width="1"></path>
        <path d="M 75 200 L 75 225" stroke="currentColor" stroke-width="1"></path>
        <path d="M 50 275 L 75 275" stroke="currentColor" stroke-width="1"></path>
        <path d="M 50 325 L 75 325" stroke="currentColor" stroke-width="1"></path>
        <path d="M 75 350 L 75 375" stroke="currentColor" stroke-width="1"></path>
        <path d="M 50 425 L 75 425" stroke="currentColor" stroke-width="1"></path>
        <path d="M 75 75 L 100 75" stroke="currentColor" stroke-width="1"></path>
        <path d="M 75 125 L 100 125" stroke="currentColor" stroke-width="1"></path>
        <path d="M 75 175 L 100 175" stroke="currentColor" stroke-width="1"></path>
        <path d="M 75 275 L 100 275" stroke="currentColor" stroke-width="1"></path>
        <path d="M 75 325 L 100 325" stroke="currentColor" stroke-width="1"></path>
        <path d="M 75 375 L 100 375" stroke="currentColor" stroke-width="1"></path>
        <path d="M 100 350 L 100 375" stroke="currentColor" stroke-width="1"></path>
        <path d="M 75 425 L 100 425" stroke="currentColor" stroke-width="1"></path>
        <path d="M 125 50 L 125 75" stroke="currentColor" stroke-width="1"></path>
        <path d="M 125 100 L 125 125" stroke="currentColor" stroke-width="1"></path>
        <path d="M 100 175 L 125 175" stroke="currentColor" stroke-width="1"></path>
        <path d="M 100 225 L 125 225" stroke="currentColor" stroke-width="1"></path>
        <path d="M 125 200 L 125 225" stroke="currentColor" stroke-width="1"></path>
        <path d="M 100 275 L 125 275" stroke="currentColor" stroke-width="1"></path>
        <path d="M 125 300 L 125 325" stroke="currentColor" stroke-width="1"></path>
        <path d="M 100 425 L 125 425" stroke="currentColor" stroke-width="1"></path>
        <path d="M 125 75 L 150 75" stroke="currentColor" stroke-width="1"></path>
        <path d="M 150 100 L 150 125" stroke="currentColor" stroke-width="1"></path>
        <path d="M 125 175 L 150 175" stroke="currentColor" stroke-width="1"></path>
        <path d="M 150 200 L 150 225" stroke="currentColor" stroke-width="1"></path>
        <path d="M 125 275 L 150 275" stroke="currentColor" stroke-width="1"></path>
        <path d="M 150 300 L 150 325" stroke="currentColor" stroke-width="1"></path>
        <path d="M 150 350 L 150 375" stroke="currentColor" stroke-width="1"></path>
        <path d="M 125 425 L 150 425" stroke="currentColor" stroke-width="1"></path>
        <path d="M 175 50 L 175 75" stroke="currentColor" stroke-width="1"></path>
        <path d="M 150 125 L 175 125" stroke="currentColor" stroke-width="1"></path>
        <path d="M 150 175 L 175 175" stroke="currentColor" stroke-width="1"></path>
        <path d="M 150 225 L 175 225" stroke="currentColor" stroke-width="1"></path>
        <path d="M 150 275 L 175 275" stroke="currentColor" stroke-width="1"></path>
        <path d="M 175 250 L 175 275" stroke="currentColor" stroke-width="1"></path>
        <path d="M 150 325 L 175 325" stroke="currentColor" stroke-width="1"></path>
        <path d="M 150 375 L 175 375" stroke="currentColor" stroke-width="1"></path>
        <path d="M 150 425 L 175 425" stroke="currentColor" stroke-width="1"></path>
        <path d="M 200 100 L 200 125" stroke="currentColor" stroke-width="1"></path>
        <path d="M 175 225 L 200 225" stroke="currentColor" stroke-width="1"></path>
        <path d="M 200 250 L 200 275" stroke="currentColor" stroke-width="1"></path>
        <path d="M 175 325 L 200 325" stroke="currentColor" stroke-width="1"></path>
        <path d="M 175 375 L 200 375" stroke="currentColor" stroke-width="1"></path>
        <path d="M 175 425 L 200 425" stroke="currentColor" stroke-width="1"></path>
        <path d="M 225 50 L 225 75" stroke="currentColor" stroke-width="1"></path>
        <path d="M 225 100 L 225 125" stroke="currentColor" stroke-width="1"></path>
        <path d="M 200 175 L 225 175" stroke="currentColor" stroke-width="1"></path>
        <path d="M 225 200 L 225 225" stroke="currentColor" stroke-width="1"></path>
        <path d="M 225 250 L 225 275" stroke="currentColor" stroke-width="1"></path>
        <path d="M 225 350 L 225 375" stroke="currentColor" stroke-width="1"></path>
        <path d="M 200 425 L 225 425" stroke="currentColor" stroke-width="1"></path>
        <path d="M 250 100 L 250 125" stroke="currentColor" stroke-width="1"></path>
        <path d="M 225 175 L 250 175" stroke="currentColor" stroke-width="1"></path>
        <path d="M 250 250 L 250 275" stroke="currentColor" stroke-width="1"></path>
        <path d="M 225 325 L 250 325" stroke="currentColor" stroke-width="1"></path>
        <path d="M 225 375 L 250 375" stroke="currentColor" stroke-width="1"></path>
        <path d="M 225 425 L 250 425" stroke="currentColor" stroke-width="1"></path>
        <path d="M 250 400 L 250 425" stroke="currentColor" stroke-width="1"></path>
        <path d="M 275 50 L 275 75" stroke="currentColor" stroke-width="1"></path>
        <path d="M 250 125 L 275 125" stroke="currentColor" stroke-width="1"></path>
        <path d="M 275 100 L 275 125" stroke="currentColor" stroke-width="1"></path>
        <path d="M 250 225 L 275 225" stroke="currentColor" stroke-width="1"></path>
        <path d="M 275 300 L 275 325" stroke="currentColor" stroke-width="1"></path>
        <path d="M 250 375 L 275 375" stroke="currentColor" stroke-width="1"></path>
        <path d="M 250 425 L 275 425" stroke="currentColor" stroke-width="1"></path>
        <path d="M 300 150 L 300 175" stroke="currentColor" stroke-width="1"></path>
        <path d="M 300 200 L 300 225" stroke="currentColor" stroke-width="1"></path>
        <path d="M 300 250 L 300 275" stroke="currentColor" stroke-width="1"></path>
        <path d="M 300 350 L 300 375" stroke="currentColor" stroke-width="1"></path>
        <path d="M 275 425 L 300 425" stroke="currentColor" stroke-width="1"></path>
        <path d="M 325 50 L 325 75" stroke="currentColor" stroke-width="1"></path>
        <path d="M 300 125 L 325 125" stroke="currentColor" stroke-width="1"></path>
        <path d="M 300 175 L 325 175" stroke="currentColor" stroke-width="1"></path>
        <path d="M 300 225 L 325 225" stroke="currentColor" stroke-width="1"></path>
        <path d="M 325 250 L 325 275" stroke="currentColor" stroke-width="1"></path>
        <path d="M 300 325 L 325 325" stroke="currentColor" stroke-width="1"></path>
        <path d="M 300 425 L 325 425" stroke="currentColor" stroke-width="1"></path>
        <path d="M 325 400 L 325 425" stroke="currentColor" stroke-width="1"></path>
        <path d="M 325 75 L 350 75" stroke="currentColor" stroke-width="1"></path>
        <path d="M 350 100 L 350 125" stroke="currentColor" stroke-width="1"></path>
        <path d="M 350 150 L 350 175" stroke="currentColor" stroke-width="1"></path>
        <path d="M 350 200 L 350 225" stroke="currentColor" stroke-width="1"></path>
        <path d="M 325 275 L 350 275" stroke="currentColor" stroke-width="1"></path>
        <path d="M 325 325 L 350 325" stroke="currentColor" stroke-width="1"></path>
        <path d="M 350 300 L 350 325" stroke="currentColor" stroke-width="1"></path>
        <path d="M 325 375 L 350 375" stroke="currentColor" stroke-width="1"></path>
        <path d="M 325 425 L 350 425" stroke="currentColor" stroke-width="1"></path>
        <path d="M 350 75 L 375 75" stroke="currentColor" stroke-width="1"></path>
        <path d="M 350 125 L 375 125" stroke="currentColor" stroke-width="1"></path>
        <path d="M 375 150 L 375 175" stroke="currentColor" stroke-width="1"></path>
        <path d="M 350 225 L 375 225" stroke="currentColor" stroke-width="1"></path>
        <path d="M 350 275 L 375 275" stroke="currentColor" stroke-width="1"></path>
        <path d="M 375 250 L 375 275" stroke="currentColor" stroke-width="1"></path>
        <path d="M 350 325 L 375 325" stroke="currentColor" stroke-width="1"></path>
        <path d="M 375 350 L 375 375" stroke="currentColor" stroke-width="1"></path>
        <path d="M 350 425 L 375 425" stroke="currentColor" stroke-width="1"></path>
        <path d="M 400 50 L 400 75" stroke="currentColor" stroke-width="1"></path>
        <path d="M 400 100 L 400 125" stroke="currentColor" stroke-width="1"></path>
        <path d="M 375 175 L 400 175" stroke="currentColor" stroke-width="1"></path>
        <path d="M 375 225 L 400 225" stroke="currentColor" stroke-width="1"></path>
        <path d="M 400 250 L 400 275" stroke="currentColor" stroke-width="1"></path>
        <path d="M 375 325 L 400 325" stroke="currentColor" stroke-width="1"></path>
        <path d="M 400 350 L 400 375" stroke="currentColor" stroke-width="1"></path>
        <path d="M 375 425 L 400 425" stroke="currentColor" stroke-width="1"></path>
    </g>
</svg>